<svg xmlns="http://www.w3.org/2000/svg" width="40" height="40" viewBox="0 0 40 40">
  <circle cx="20" cy="20" r="19" fill="#3B82F6"/>
  <circle cx="20" cy="20" r="19" fill="none" stroke="#2563EB" stroke-width="0.8"/>
  <rect x="5" y="7" width="19" height="14" rx="3" fill="white"/>
  <polygon points="9,21 13,21 9,25" fill="white"/>
  <path d="M438 850V691H44V574H188C243 427 311 302 402 199C300 121 175 64 26 24C50 -5 88 -62 102 -93C255 -45 385 20 494 108C600 18 730 -48 892 -90C910 -56 949 1 978 30C825 64 698 123 595 202C688 303 761 425 815 574H960V691H561V850ZM500 288C423 369 364 466 322 574H673C631 461 573 366 500 288Z" fill="#1E40AF" transform="translate(8.782,16.310) scale(0.00840,-0.00742)"/>
  <rect x="16" y="19" width="19" height="14" rx="3" fill="white" fill-opacity="0.92"/>
  <polygon points="31,33 27,33 31,37" fill="white" fill-opacity="0.92"/>
  <text x="25.5" y="29.5" text-anchor="middle" fill="#3B82F6" font-family="Arial,Helvetica,sans-serif" font-size="9" font-weight="bold">En</text>
</svg>