<svg xmlns="http://www.w3.org/2000/svg" width="16" height="16" viewBox="0 0 16 16">
  <rect width="16" height="16" rx="3" fill="#60A5FA"/>
  <path d="M438 850V691H44V574H188C243 427 311 302 402 199C300 121 175 64 26 24C50 -5 88 -62 102 -93C255 -45 385 20 494 108C600 18 730 -48 892 -90C910 -56 949 1 978 30C825 64 698 123 595 202C688 303 761 425 815 574H960V691H561V850ZM500 288C423 369 364 466 322 574H673C631 461 573 366 500 288Z" fill="white" transform="translate(2.200,6.659) scale(0.01155,-0.00689)"/>
  <line x1="3" y1="8.5" x2="13" y2="8.5" stroke="white" stroke-opacity="0.4" stroke-width="0.5"/>
  <text x="8" y="14.2" text-anchor="middle" fill="white" font-family="Arial,Helvetica,sans-serif" font-size="5.5" font-weight="bold">En</text>
</svg>