<svg xmlns="http://www.w3.org/2000/svg" width="16" height="16" viewBox="0 0 16 16">
  <circle cx="8" cy="8" r="7.5" fill="#3B82F6"/>
  <circle cx="8" cy="8" r="7.5" fill="none" stroke="#2563EB" stroke-width="0.4"/>
  <rect x="2" y="2.8" width="7.6" height="5.6" rx="1.2" fill="white"/>
  <polygon points="3.6,8.4 5.2,8.4 3.6,10" fill="white"/>
  <path d="M438 850V691H44V574H188C243 427 311 302 402 199C300 121 175 64 26 24C50 -5 88 -62 102 -93C255 -45 385 20 494 108C600 18 730 -48 892 -90C910 -56 949 1 978 30C825 64 698 123 595 202C688 303 761 425 815 574H960V691H561V850ZM500 288C423 369 364 466 322 574H673C631 461 573 366 500 288Z" fill="#1E40AF" transform="translate(3.5,6.5) scale(0.00336,-0.00297)"/>
  <rect x="6.4" y="7.6" width="7.6" height="5.6" rx="1.2" fill="white" fill-opacity="0.92"/>
  <polygon points="12.4,13.2 10.8,13.2 12.4,14.8" fill="white" fill-opacity="0.92"/>
  <text x="10.2" y="12.2" text-anchor="middle" fill="#3B82F6" font-family="Arial,Helvetica,sans-serif" font-size="3.6" font-weight="bold">En</text>
</svg>
